<svg width="448" height="450" viewBox="0 0 448 450" fill="none" xmlns="http://www.w3.org/2000/svg">
<rect width="448" height="450" fill="#F5F5F5"/>
<rect width="448" height="450" fill="#946147"/>
<path d="M432 224.5C432 339.099 338.875 432 224 432C109.125 432 16 339.099 16 224.5C16 109.901 109.125 17 224 17C338.875 17 432 109.901 432 224.5Z" fill="#030303"/>
<path d="M235.528 158.4H237.192V209.6C237.192 222.997 234.547 232.853 229.256 239.168C223.965 245.397 217.053 248.512 208.52 248.512C203.144 248.512 198.579 248.043 194.824 247.104C191.069 246.08 187.528 244.245 184.2 241.6C177.373 236.309 173.96 225.643 173.96 209.6V158.4H184.584V209.472C184.584 225.003 186.931 235.371 191.624 240.576C194.013 243.136 196.488 244.885 199.048 245.824C201.693 246.763 204.851 247.232 208.52 247.232C216.712 247.232 223.24 244.245 228.104 238.272C233.053 232.213 235.528 222.613 235.528 209.472V158.4Z" fill="#FFFCFC"/>
<path d="M198.376 248H196.84L235.112 158.4L236.52 157.76L268.776 248H257.896L247.912 219.84H210.536L198.376 248ZM231.144 172.224L211.048 218.56H247.528L231.144 172.224ZM280.305 248.512C279.196 248.512 278.214 248.128 277.361 247.36C276.593 246.507 276.209 245.525 276.209 244.416C276.209 243.221 276.593 242.24 277.361 241.472C278.129 240.704 279.068 240.32 280.177 240.32C281.372 240.32 282.353 240.747 283.121 241.6C283.974 242.368 284.401 243.307 284.401 244.416C284.401 245.525 283.974 246.507 283.121 247.36C282.353 248.128 281.414 248.512 280.305 248.512Z" fill="white"/>
<path d="M111.451 336C109.715 336 108.447 335.6 107.647 334.8C106.847 334 106.447 332.732 106.447 330.996V321.168C106.447 320.976 106.503 320.824 106.615 320.712C106.735 320.592 106.891 320.532 107.083 320.532C107.275 320.532 107.427 320.592 107.539 320.712C107.651 320.824 107.707 320.976 107.707 321.168V330.996C107.707 331.924 107.827 332.66 108.067 333.204C108.307 333.748 108.699 334.14 109.243 334.38C109.787 334.62 110.523 334.74 111.451 334.74H114.331C115.251 334.74 115.983 334.62 116.527 334.38C117.071 334.14 117.463 333.748 117.703 333.204C117.943 332.66 118.063 331.924 118.063 330.996V321.168C118.063 320.976 118.119 320.824 118.231 320.712C118.351 320.592 118.507 320.532 118.699 320.532C118.891 320.532 119.043 320.592 119.155 320.712C119.267 320.824 119.323 320.976 119.323 321.168V330.996C119.323 332.732 118.923 334 118.123 334.8C117.331 335.6 116.067 336 114.331 336H111.451ZM132.472 335.976C131.04 335.976 129.976 335.66 129.28 335.028C128.592 334.388 128.224 333.384 128.176 332.016C128.168 331.824 128.22 331.672 128.332 331.56C128.452 331.44 128.608 331.38 128.8 331.38C128.992 331.38 129.144 331.436 129.256 331.548C129.368 331.66 129.432 331.812 129.448 332.004C129.48 333.012 129.72 333.716 130.168 334.116C130.616 334.516 131.384 334.716 132.472 334.716H135.928C137.064 334.716 137.852 334.496 138.292 334.056C138.74 333.608 138.964 332.824 138.964 331.704C138.964 330.568 138.74 329.78 138.292 329.34C137.852 328.892 137.064 328.668 135.928 328.668H132.64C131.232 328.668 130.2 328.34 129.544 327.684C128.888 327.028 128.56 326 128.56 324.6C128.56 323.2 128.884 322.172 129.532 321.516C130.188 320.86 131.216 320.532 132.616 320.532H135.976C137.32 320.532 138.316 320.832 138.964 321.432C139.62 322.032 139.972 322.976 140.02 324.264C140.036 324.456 139.984 324.612 139.864 324.732C139.752 324.844 139.596 324.9 139.396 324.9C139.212 324.9 139.064 324.844 138.952 324.732C138.84 324.62 138.776 324.468 138.76 324.276C138.728 323.356 138.504 322.712 138.088 322.344C137.672 321.976 136.968 321.792 135.976 321.792H132.616C131.568 321.792 130.84 322 130.432 322.416C130.024 322.824 129.82 323.552 129.82 324.6C129.82 325.648 130.024 326.38 130.432 326.796C130.848 327.204 131.584 327.408 132.64 327.408H135.928C137.416 327.408 138.504 327.756 139.192 328.452C139.88 329.14 140.224 330.224 140.224 331.704C140.224 333.184 139.88 334.268 139.192 334.956C138.504 335.636 137.416 335.976 135.928 335.976H132.472ZM149.827 336C149.403 336 149.191 335.788 149.191 335.364V321.168C149.191 320.744 149.403 320.532 149.827 320.532C150.131 320.532 150.371 320.672 150.547 320.952L156.523 330.084L156.235 330.12L162.211 320.952C162.379 320.672 162.631 320.532 162.967 320.532C163.343 320.532 163.531 320.744 163.531 321.168V335.364C163.531 335.788 163.323 336 162.907 336C162.483 336 162.271 335.788 162.271 335.364V322.428L162.643 322.548L157.099 330.996C156.923 331.268 156.671 331.404 156.343 331.404C156.055 331.404 155.823 331.268 155.647 330.996L150.103 322.548L150.451 322.68V335.364C150.451 335.788 150.243 336 149.827 336ZM171.599 335.94C171.215 335.772 171.099 335.492 171.251 335.1L177.203 321.024C177.331 320.696 177.567 320.532 177.911 320.532H177.983C178.311 320.54 178.543 320.704 178.679 321.024L184.631 335.1C184.791 335.492 184.679 335.772 184.295 335.94C183.903 336.1 183.631 335.988 183.479 335.604L181.883 331.824H174.023L172.427 335.604C172.267 335.988 171.991 336.1 171.599 335.94ZM174.539 330.564H181.355L177.947 322.524L174.539 330.564ZM192.989 336C192.565 336 192.353 335.788 192.353 335.364V321.168C192.353 320.744 192.565 320.532 192.989 320.532C193.213 320.532 193.429 320.656 193.637 320.904L203.801 333.96H203.513V321.168C203.513 320.744 203.725 320.532 204.149 320.532C204.565 320.532 204.773 320.744 204.773 321.168V335.364C204.773 335.788 204.565 336 204.149 336C203.917 336 203.701 335.876 203.501 335.628L193.325 322.572H193.613V335.364C193.613 335.788 193.405 336 192.989 336ZM223.663 335.94C223.279 335.772 223.163 335.492 223.315 335.1L229.267 321.024C229.395 320.696 229.631 320.532 229.975 320.532H230.047C230.375 320.54 230.607 320.704 230.743 321.024L236.695 335.1C236.855 335.492 236.743 335.772 236.359 335.94C235.967 336.1 235.695 335.988 235.543 335.604L233.947 331.824H226.087L224.491 335.604C224.331 335.988 224.055 336.1 223.663 335.94ZM226.603 330.564H233.419L230.011 322.524L226.603 330.564ZM245.053 336C244.629 336 244.417 335.788 244.417 335.364V321.168C244.417 320.744 244.629 320.532 245.053 320.532C245.469 320.532 245.677 320.744 245.677 321.168V334.74H252.973C253.397 334.74 253.609 334.948 253.609 335.364C253.609 335.788 253.397 336 252.973 336H245.053ZM260.005 335.94C259.621 335.772 259.505 335.492 259.657 335.1L265.609 321.024C265.737 320.696 265.973 320.532 266.317 320.532H266.389C266.717 320.54 266.949 320.704 267.085 321.024L273.037 335.1C273.197 335.492 273.085 335.772 272.701 335.94C272.309 336.1 272.037 335.988 271.885 335.604L270.289 331.824H262.429L260.833 335.604C260.673 335.988 260.397 336.1 260.005 335.94ZM262.945 330.564H269.761L266.353 322.524L262.945 330.564ZM281.396 336C280.972 336 280.76 335.788 280.76 335.364V321.168C280.76 320.744 280.972 320.532 281.396 320.532C281.7 320.532 281.94 320.672 282.116 320.952L288.092 330.084L287.804 330.12L293.78 320.952C293.948 320.672 294.2 320.532 294.536 320.532C294.912 320.532 295.1 320.744 295.1 321.168V335.364C295.1 335.788 294.892 336 294.476 336C294.052 336 293.84 335.788 293.84 335.364V322.428L294.212 322.548L288.668 330.996C288.492 331.268 288.24 331.404 287.912 331.404C287.624 331.404 287.392 331.268 287.216 330.996L281.672 322.548L282.02 322.68V335.364C282.02 335.788 281.812 336 281.396 336ZM313.991 335.94C313.607 335.772 313.491 335.492 313.643 335.1L319.595 321.024C319.723 320.696 319.959 320.532 320.303 320.532H320.375C320.703 320.54 320.935 320.704 321.071 321.024L327.023 335.1C327.183 335.492 327.071 335.772 326.687 335.94C326.295 336.1 326.023 335.988 325.871 335.604L324.275 331.824H316.415L314.819 335.604C314.659 335.988 314.383 336.1 313.991 335.94ZM316.931 330.564H323.747L320.339 322.524L316.931 330.564ZM345.21 336.024C345.034 336.128 344.874 336.164 344.73 336.132C344.586 336.1 344.458 336 344.346 335.832L340.41 329.568H336.006V335.364C336.006 335.788 335.798 336 335.382 336C334.958 336 334.746 335.788 334.746 335.364V321.168C334.746 320.744 334.958 320.532 335.382 320.532H340.998C342.366 320.532 343.398 320.884 344.094 321.588C344.798 322.292 345.15 323.328 345.15 324.696V325.416C345.15 326.624 344.874 327.572 344.322 328.26C343.77 328.948 342.954 329.368 341.874 329.52L345.414 335.16C345.638 335.528 345.57 335.816 345.21 336.024ZM336.006 328.308H340.998C342.006 328.308 342.738 328.08 343.194 327.624C343.658 327.16 343.89 326.424 343.89 325.416V324.696C343.89 323.68 343.658 322.944 343.194 322.488C342.738 322.024 342.006 321.792 340.998 321.792H336.006V328.308ZM357.875 336.012C357.683 336.012 357.527 335.956 357.407 335.844C357.295 335.732 357.239 335.58 357.239 335.388V321.78H352.139C351.947 321.78 351.791 321.724 351.671 321.612C351.559 321.5 351.503 321.348 351.503 321.156C351.503 320.964 351.559 320.812 351.671 320.7C351.791 320.58 351.947 320.52 352.139 320.52H363.611C363.803 320.52 363.955 320.58 364.067 320.7C364.179 320.812 364.235 320.964 364.235 321.156C364.235 321.348 364.179 321.5 364.067 321.612C363.955 321.724 363.803 321.78 363.611 321.78H358.499V335.388C358.499 335.572 358.439 335.724 358.319 335.844C358.207 335.956 358.059 336.012 357.875 336.012Z" fill="white"/>
</svg>
